<svg xmlns="http://www.w3.org/2000/svg" width="264" height="223" viewBox="0 0 264 223" fill="none">
<g filter="url(#filter0_d)"><path fill-rule="evenodd" clip-rule="evenodd" d="M143.767 118.729L146.397 117.211V111.917L140.818 115.137L137.903 116.82V122.115L143.767 118.687V118.729ZM146.397 91.0835V85.7893L137.903 80.8854V86.1795L140.818 87.8628L146.397 91.0835Z" fill="url(#paint0_linear)"></path></g><g filter="url(#filter1_d)"><path fill-rule="evenodd" clip-rule="evenodd" d="M128.783 123.138L122.482 119.5L112.09 113.5V89.4998L122.482 83.4998L128.783 79.8617V85.679L125.001 87.8628L117.127 92.4083V101.5V110.592L125.001 115.137L128.783 117.321V123.138Z" fill="url(#paint1_linear)"></path></g><g filter="url(#filter2_d)"><path d="M128.783 111.769L126.616 110.518L121.409 107.512V95.4884L126.616 92.4824L128.783 91.2311V111.769Z" fill="url(#paint2_linear)"></path></g><g filter="url(#filter3_d)"><path fill-rule="evenodd" clip-rule="evenodd" d="M149.28 115.546L151.91 114.028V88.9721L149.28 87.4537V115.546Z" fill="url(#paint3_linear)"></path></g><g filter="url(#filter4_d)"><path d="M132.039 77.5V125.5L134.67 123.981V112.741L138.521 110.518L143.728 107.512V101.5V95.4883L138.521 92.4823L134.67 90.2588V79.0186L132.039 77.5Z" fill="url(#paint4_linear)"></path></g><g filter="url(#filter5_d)"><path d="M97.5158 136.002H100.18V141.114C99.4958 141.63 98.7038 142.026 97.8038 142.302C96.9038 142.578 95.9978 142.716 95.0858 142.716C93.7778 142.716 92.6018 142.44 91.5578 141.888C90.5138 141.324 89.6918 140.55 89.0918 139.566C88.5038 138.57 88.2098 137.448 88.2098 136.2C88.2098 134.952 88.5038 133.836 89.0918 132.852C89.6918 131.856 90.5198 131.082 91.5758 130.53C92.6318 129.966 93.8198 129.684 95.1398 129.684C96.2438 129.684 97.2458 129.87 98.1458 130.242C99.0458 130.614 99.8018 131.154 100.414 131.862L98.5418 133.59C97.6418 132.642 96.5558 132.168 95.2838 132.168C94.4798 132.168 93.7658 132.336 93.1418 132.672C92.5178 133.008 92.0318 133.482 91.6838 134.094C91.3358 134.706 91.1618 135.408 91.1618 136.2C91.1618 136.98 91.3358 137.676 91.6838 138.288C92.0318 138.9 92.5118 139.38 93.1238 139.728C93.7478 140.064 94.4558 140.232 95.2478 140.232C96.0878 140.232 96.8438 140.052 97.5158 139.692V136.002ZM112.187 139.8H106.337L105.221 142.5H102.233L107.849 129.9H110.729L116.363 142.5H113.303L112.187 139.8ZM111.269 137.586L109.271 132.762L107.273 137.586H111.269ZM123.26 137.55L121.568 139.314V142.5H118.67V129.9H121.568V135.786L127.148 129.9H130.388L125.168 135.516L130.694 142.5H127.292L123.26 137.55Z" fill="url(#paint5_linear)"></path></g><g filter="url(#filter6_d)"><path d="M131.994 129.9H134.91V140.124H141.228V142.5H131.994V129.9ZM143.857 129.9H146.773V142.5H143.857V129.9ZM162.32 129.9V142.5H159.926L153.644 134.85V142.5H150.764V129.9H153.176L159.44 137.55V129.9H162.32ZM170.891 137.55L169.199 139.314V142.5H166.301V129.9H169.199V135.786L174.779 129.9H178.019L172.799 135.516L178.325 142.5H174.923L170.891 137.55Z" fill="url(#paint6_linear)"></path></g><defs><filter id="filter0_d" x="133.903" y="76.8854" width="16.4942" height="49.2293" filterUnits="userSpaceOnUse" color-interpolation-filters="sRGB"><feFlood flood-opacity="0" result="BackgroundImageFix"></feFlood><feColorMatrix in="SourceAlpha" type="matrix" values="0 0 0 0 0 0 0 0 0 0 0 0 0 0 0 0 0 0 127 0" result="hardAlpha"></feColorMatrix><feOffset></feOffset><feGaussianBlur stdDeviation="2"></feGaussianBlur><feColorMatrix type="matrix" values="0 0 0 0 0.108889 0 0 0 0 0.784934 0 0 0 0 0.933333 0 0 0 1 0"></feColorMatrix><feBlend mode="normal" in2="BackgroundImageFix" result="effect1_dropShadow"></feBlend><feBlend mode="normal" in="SourceGraphic" in2="effect1_dropShadow" result="shape"></feBlend></filter><filter id="filter1_d" x="110.09" y="77.8618" width="20.6938" height="47.2764" filterUnits="userSpaceOnUse" color-interpolation-filters="sRGB"><feFlood flood-opacity="0" result="BackgroundImageFix"></feFlood><feColorMatrix in="SourceAlpha" type="matrix" values="0 0 0 0 0 0 0 0 0 0 0 0 0 0 0 0 0 0 127 0" result="hardAlpha"></feColorMatrix><feOffset></feOffset><feGaussianBlur stdDeviation="1"></feGaussianBlur><feColorMatrix type="matrix" values="0 0 0 0 0.109804 0 0 0 0 0.784314 0 0 0 0 0.933333 0 0 0 1 0"></feColorMatrix><feBlend mode="normal" in2="BackgroundImageFix" result="effect1_dropShadow"></feBlend><feBlend mode="normal" in="SourceGraphic" in2="effect1_dropShadow" result="shape"></feBlend></filter><filter id="filter2_d" x="119.409" y="89.2311" width="11.3739" height="24.5378" filterUnits="userSpaceOnUse" color-interpolation-filters="sRGB"><feFlood flood-opacity="0" result="BackgroundImageFix"></feFlood><feColorMatrix in="SourceAlpha" type="matrix" values="0 0 0 0 0 0 0 0 0 0 0 0 0 0 0 0 0 0 127 0" result="hardAlpha"></feColorMatrix><feOffset></feOffset><feGaussianBlur stdDeviation="1"></feGaussianBlur><feColorMatrix type="matrix" values="0 0 0 0 0.996078 0 0 0 0 0.2 0 0 0 0 0.819608 0 0 0 1 0"></feColorMatrix><feBlend mode="normal" in2="BackgroundImageFix" result="effect1_dropShadow"></feBlend><feBlend mode="normal" in="SourceGraphic" in2="effect1_dropShadow" result="shape"></feBlend></filter><filter id="filter3_d" x="147.28" y="85.4537" width="6.6303" height="32.0926" filterUnits="userSpaceOnUse" color-interpolation-filters="sRGB"><feFlood flood-opacity="0" result="BackgroundImageFix"></feFlood><feColorMatrix in="SourceAlpha" type="matrix" values="0 0 0 0 0 0 0 0 0 0 0 0 0 0 0 0 0 0 127 0" result="hardAlpha"></feColorMatrix><feOffset></feOffset><feGaussianBlur stdDeviation="1"></feGaussianBlur><feColorMatrix type="matrix" values="0 0 0 0 0.996078 0 0 0 0 0.2 0 0 0 0 0.819608 0 0 0 1 0"></feColorMatrix><feBlend mode="normal" in2="BackgroundImageFix" result="effect1_dropShadow"></feBlend><feBlend mode="normal" in="SourceGraphic" in2="effect1_dropShadow" result="shape"></feBlend></filter><filter id="filter4_d" x="130.039" y="75.5" width="15.6886" height="52" filterUnits="userSpaceOnUse" color-interpolation-filters="sRGB"><feFlood flood-opacity="0" result="BackgroundImageFix"></feFlood><feColorMatrix in="SourceAlpha" type="matrix" values="0 0 0 0 0 0 0 0 0 0 0 0 0 0 0 0 0 0 127 0" result="hardAlpha"></feColorMatrix><feOffset></feOffset><feGaussianBlur stdDeviation="1"></feGaussianBlur><feColorMatrix type="matrix" values="0 0 0 0 0.996078 0 0 0 0 0.2 0 0 0 0 0.819608 0 0 0 1 0"></feColorMatrix><feBlend mode="normal" in2="BackgroundImageFix" result="effect1_dropShadow"></feBlend><feBlend mode="normal" in="SourceGraphic" in2="effect1_dropShadow" result="shape"></feBlend></filter><filter id="filter5_d" x="86.2098" y="127.684" width="46.484" height="17.032" filterUnits="userSpaceOnUse" color-interpolation-filters="sRGB"><feFlood flood-opacity="0" result="BackgroundImageFix"></feFlood><feColorMatrix in="SourceAlpha" type="matrix" values="0 0 0 0 0 0 0 0 0 0 0 0 0 0 0 0 0 0 127 0" result="hardAlpha"></feColorMatrix><feOffset></feOffset><feGaussianBlur stdDeviation="1"></feGaussianBlur><feColorMatrix type="matrix" values="0 0 0 0 0.109804 0 0 0 0 0.784314 0 0 0 0 0.933333 0 0 0 1 0"></feColorMatrix><feBlend mode="normal" in2="BackgroundImageFix" result="effect1_dropShadow"></feBlend><feBlend mode="normal" in="SourceGraphic" in2="effect1_dropShadow" result="shape"></feBlend></filter><filter id="filter6_d" x="129.994" y="127.9" width="50.3306" height="16.6" filterUnits="userSpaceOnUse" color-interpolation-filters="sRGB"><feFlood flood-opacity="0" result="BackgroundImageFix"></feFlood><feColorMatrix in="SourceAlpha" type="matrix" values="0 0 0 0 0 0 0 0 0 0 0 0 0 0 0 0 0 0 127 0" result="hardAlpha"></feColorMatrix><feOffset></feOffset><feGaussianBlur stdDeviation="1"></feGaussianBlur><feColorMatrix type="matrix" values="0 0 0 0 0.996078 0 0 0 0 0.2 0 0 0 0 0.819608 0 0 0 1 0"></feColorMatrix><feBlend mode="normal" in2="BackgroundImageFix" result="effect1_dropShadow"></feBlend><feBlend mode="normal" in="SourceGraphic" in2="effect1_dropShadow" result="shape"></feBlend></filter><linearGradient id="paint0_linear" x1="142.15" y1="122.115" x2="142.15" y2="80.8854" gradientUnits="userSpaceOnUse"><stop stop-color="#1CC8EE"></stop><stop offset="1" stop-color="#06B3D9"></stop></linearGradient><linearGradient id="paint1_linear" x1="120.436" y1="123.138" x2="120.436" y2="79.8617" gradientUnits="userSpaceOnUse"><stop stop-color="#1CC8EE"></stop><stop offset="1" stop-color="#06B3D9"></stop></linearGradient><linearGradient id="paint2_linear" x1="124.63" y1="91.2254" x2="122.401" y2="112.048" gradientUnits="userSpaceOnUse"><stop offset="0.9999" stop-color="#FE33D1"></stop><stop offset="1" stop-color="#BA0F1A"></stop></linearGradient><linearGradient id="paint3_linear" x1="150.429" y1="87.4458" x2="140.308" y2="112.1" gradientUnits="userSpaceOnUse"><stop offset="0.9999" stop-color="#FE33D1"></stop><stop offset="1" stop-color="#BA0F1A"></stop></linearGradient><linearGradient id="paint4_linear" x1="137.145" y1="77.4865" x2="129.564" y2="125.514" gradientUnits="userSpaceOnUse"><stop offset="0.9999" stop-color="#FE33D1"></stop><stop offset="1" stop-color="#BA0F1A"></stop></linearGradient><linearGradient id="paint5_linear" x1="65.5" y1="125.5" x2="65.5" y2="145.5" gradientUnits="userSpaceOnUse"><stop stop-color="#1CC8EE"></stop><stop offset="1" stop-color="#06B3D9"></stop></linearGradient><linearGradient id="paint6_linear" x1="188.596" y1="145.506" x2="188.477" y2="124.996" gradientUnits="userSpaceOnUse"><stop offset="0.9999" stop-color="#FE33D1"></stop><stop offset="1" stop-color="#BA0F1A"></stop></linearGradient></defs></svg>