<svg width="65" height="64" viewBox="0 0 65 64" fill="none" xmlns="http://www.w3.org/2000/svg">
<path d="M2.66666 23.1635C6.62862 19.2015 11.3322 16.0587 16.5087 13.9145C21.6853 11.7703 27.2335 10.6667 32.8365 10.6667C38.4396 10.6667 43.9878 11.7703 49.1644 13.9145C54.3409 16.0587 59.0445 19.2015 63.0064 23.1635" stroke="#BE9999" stroke-width="3" stroke-linecap="round"></path>
<path d="M12.0938 32.5915C14.8176 29.8677 18.0513 27.707 21.6102 26.2329C25.1691 24.7587 28.9834 24 32.8355 24C36.6877 24 40.502 24.7587 44.0609 26.2329C47.6198 27.707 50.8535 29.8677 53.5773 32.5915" stroke="#BE9999" stroke-width="3" stroke-linecap="round"></path>
<path d="M21.5234 42.0196C23.0092 40.5339 24.773 39.3553 26.7142 38.5512C28.6554 37.7472 30.736 37.3333 32.8371 37.3333C34.9383 37.3333 37.0189 37.7472 38.9601 38.5512C40.9013 39.3553 42.6651 40.5339 44.1509 42.0196" stroke="#BE9999" stroke-width="3" stroke-linecap="round"></path>
<path d="M35.9993 52.9984C35.9993 54.7464 34.5823 56.1634 32.8343 56.1634C31.0863 56.1634 29.6693 54.7464 29.6693 52.9984C29.6693 51.2504 31.0863 49.8334 32.8343 49.8334C34.5823 49.8334 35.9993 51.2504 35.9993 52.9984Z" fill="#DA0000" stroke="#DA0000"></path>
</svg>